<svg id="图层_1" data-name="图层 1" xmlns="http://www.w3.org/2000/svg" xmlns:xlink="http://www.w3.org/1999/xlink" viewBox="0 0 600 60"><defs><style>.cls-1{fill:url(#未命名的渐变_43);}.cls-2{fill:url(#未命名的渐变_39);}.cls-3{fill:url(#未命名的渐变_16);}.cls-4{fill:url(#未命名的渐变_16-2);}.cls-5{fill:url(#未命名的渐变_16-3);}.cls-6{fill:url(#未命名的渐变_16-4);}.cls-7{fill:url(#未命名的渐变_16-5);}.cls-8{fill:url(#未命名的渐变_16-6);}.cls-9{fill:url(#未命名的渐变_16-7);}.cls-10{fill:url(#未命名的渐变_16-8);}.cls-11{fill:url(#未命名的渐变_16-9);}.cls-12{fill:url(#未命名的渐变_16-10);}</style><linearGradient id="未命名的渐变_43" x1="300" y1="72.45" x2="300" y2="-18.65" gradientUnits="userSpaceOnUse"><stop offset="0" stop-color="#12254e"/><stop offset="1" stop-color="#222b38" stop-opacity="0.2"/></linearGradient><linearGradient id="未命名的渐变_39" y1="30" x2="600" y2="30" gradientUnits="userSpaceOnUse"><stop offset="0" stop-color="#2196ff" stop-opacity="0"/><stop offset="0.53" stop-color="#1fe2fe"/><stop offset="1" stop-color="#219dff" stop-opacity="0"/></linearGradient><linearGradient id="未命名的渐变_16" x1="176.19" y1="39.28" x2="176.19" y2="14.19" gradientUnits="userSpaceOnUse"><stop offset="0" stop-color="#2196ff"/><stop offset="1" stop-color="#1fe2fe"/></linearGradient><linearGradient id="未命名的渐变_16-2" x1="203.39" y1="39.28" x2="203.39" y2="14.19" xlink:href="#未命名的渐变_16"/><linearGradient id="未命名的渐变_16-3" x1="231.35" y1="39.28" x2="231.35" y2="14.19" xlink:href="#未命名的渐变_16"/><linearGradient id="未命名的渐变_16-4" x1="258.63" y1="39.28" x2="258.63" y2="14.19" xlink:href="#未命名的渐变_16"/><linearGradient id="未命名的渐变_16-5" x1="286.45" y1="39.28" x2="286.45" y2="14.19" xlink:href="#未命名的渐变_16"/><linearGradient id="未命名的渐变_16-6" x1="314.29" y1="39.28" x2="314.29" y2="14.19" xlink:href="#未命名的渐变_16"/><linearGradient id="未命名的渐变_16-7" x1="341.1" y1="39.28" x2="341.1" y2="14.19" xlink:href="#未命名的渐变_16"/><linearGradient id="未命名的渐变_16-8" x1="368.85" y1="39.28" x2="368.85" y2="14.19" xlink:href="#未命名的渐变_16"/><linearGradient id="未命名的渐变_16-9" x1="396.53" y1="39.28" x2="396.53" y2="14.19" xlink:href="#未命名的渐变_16"/><linearGradient id="未命名的渐变_16-10" x1="424.49" y1="39.28" x2="424.49" y2="14.19" xlink:href="#未命名的渐变_16"/></defs><title>画板 84</title><path class="cls-1" d="M537.68,60H62.32A26.61,26.61,0,0,1,41.8,50.61L0,0H600L558.2,50.61A26.61,26.61,0,0,1,537.68,60Z"/><path class="cls-2" d="M532.19,60H67.6c-19,0-24.52-7-33.68-18.47-1.75-2.19-3.55-4.46-5.64-6.94L0,1.09,1.57,0,29.85,33.5c2.11,2.5,3.92,4.78,5.67,7,9.09,11.42,14.1,17.72,32.08,17.72H532.19c18.11,0,23.2-6.38,32.45-18,1.71-2.13,3.48-4.35,5.51-6.76L598.43,0,600,1.09l-28.28,33.5c-2,2.39-3.78,4.59-5.48,6.72C556.93,53,551.31,60,532.19,60Z"/><path class="cls-3" d="M187.81,40.39H185v-.91H167.38v.91h-2.81V15.85h23.24ZM185,37V18.38H167.38V37Zm-9.33-18c-.17.38-.33.77-.53,1.13h7V22a10.15,10.15,0,0,1-3.09,3.47,32.39,32.39,0,0,0,5.65,1.76l-1.49,2.15a30.18,30.18,0,0,1-6.53-2.48,31.85,31.85,0,0,1-7.62,2.56l-1.24-2.28a32.72,32.72,0,0,0,6.55-1.68,15.94,15.94,0,0,1-2.09-1.74,18.75,18.75,0,0,1-2.45,1.82l-1.57-2.09a10.66,10.66,0,0,0,4.82-4.85Zm6.25,15.48L181,36.81a67.58,67.58,0,0,0-10.6-2.89l1.13-2.12A66.15,66.15,0,0,1,181.92,34.47Zm-1.54-4.11-1.32,2A31.4,31.4,0,0,0,173,30l1.26-1.87A38.78,38.78,0,0,1,180.38,30.36Zm-1.08-8.2h-5.48a.1.1,0,0,0,0,.08,17.43,17.43,0,0,0,3,2.12A9.88,9.88,0,0,0,179.3,22.16Z"/><path class="cls-4" d="M200.79,39h-2.65V37.69H196v1.79h-2.64v-10c-.38.6-.77,1.18-1.16,1.76l-1.43-2.34a27.62,27.62,0,0,0,3.75-9.94h-2.92V16.15h9.64v2.76h-4a35.44,35.44,0,0,1-1.44,5.39h5Zm-2.65-3.89V26.89H196v8.18ZM211.94,32v2.7h-10.3V32Zm-5.48-11.84-1.13,6.5h5l1.21-8.18h-9.36v-2.7H214.7l-1.44,10.88H216c0,6.94-.42,11-1.21,12s-2.54,1.6-5.13,1.6c-.77,0-1.54-.06-2.37-.14l-.82-2.78a23.71,23.71,0,0,0,2.53.25c2,0,3.25-.42,3.64-1.21s.63-3.17.63-7.08H202.16L203.65,20Z"/><path class="cls-5" d="M229.84,15.77v2.64h-1.45V32.54c.52-.16,1-.33,1.51-.5v2.79c-.5.16-1,.3-1.51.44v5.15H225.6V36c-2.06.49-4.18,1-6.39,1.4l-.69-2.72L220,34.5V18.41h-1.38V15.77Zm-4.24,5.89V18.41h-2.83v3.25Zm0,5.73V24.25h-2.83v3.14Zm0,6V30h-2.83v4Zm7.88-12.73a36.12,36.12,0,0,0-2.4-4.18L233.29,15a35.45,35.45,0,0,1,2.37,4.22l-2,1.37h3.2a35,35,0,0,0,2.47-5.7l2.68,1a40,40,0,0,1-2.32,4.68h3.5v2.7h-5.32v.36c0,1.24,0,2.43-.16,3.53h6V30h-5.24q1.13,4.13,5.68,8.35l-2,2.14a22,22,0,0,1-5.37-8.34,14.74,14.74,0,0,1-6,8.48l-1.74-2.34c2.78-1.71,4.6-4.49,5.45-8.29h-4.93V27.2H235a24.47,24.47,0,0,0,.16-2.87v-1h-5.07v-2.7Z"/><path class="cls-6" d="M246.78,28.6l-.88-2.86a29.2,29.2,0,0,0,6.42-10.94L255,16.07a29,29,0,0,1-2.86,6V40.44h-2.87V26A34,34,0,0,1,246.78,28.6Zm17-3.36V29a13.54,13.54,0,0,1-2.24,7.46,12.57,12.57,0,0,1-6.41,4L253.61,38c2.84-.91,4.77-2,5.76-3.36A11,11,0,0,0,261,29V25.24Zm-.42-10.44v1.79h7.36v2.62h-7.36v1.84h5.95V34.11H266.5V23.62h-8.4V34.47h-2.78V21.05h5.18V14.8Zm8,23.74-2,2a37.32,37.32,0,0,0-6.25-4.82l1.9-1.79A47.08,47.08,0,0,1,271.35,38.54Z"/><path class="cls-7" d="M275.92,40.42,274.35,38c5.13-1.37,8.6-3.08,10.36-5.12a4.41,4.41,0,0,1,.3-.39H274.63V29.79h11.9a16.83,16.83,0,0,0,1.16-5.43V20.94h2.78v3.42a22.87,22.87,0,0,1-.91,5.43h8.56v2.69H288.4l-.25.45a62.85,62.85,0,0,1,10.39,5.15l-1.6,2.5A56.67,56.67,0,0,0,286.58,35C284.32,37.36,280.77,39.15,275.92,40.42ZM298,23h-2.81V19.84H277.49V23h-2.8V17.2H285a21.3,21.3,0,0,0-.86-2l2.95-.49c.3.74.58,1.57.86,2.45H298Zm-14,4.38-1.48,2.29a23.17,23.17,0,0,0-5.26-3l1.43-2.12A26.77,26.77,0,0,1,284,27.39Zm2.7-3.88-1.48,2.28a21.91,21.91,0,0,0-5.15-2.92l1.43-2.12A25.8,25.8,0,0,1,286.69,23.51Z"/><path class="cls-8" d="M308.4,15v4.46h5.07v2.65H308.4v4.3h4.18V36.78A20.76,20.76,0,0,0,317.82,33c-.31-.93-.58-1.93-.86-3a33.63,33.63,0,0,1-.77-4.76l-3.52.63-.42-2.61,3.69-.67c-.16-2.25-.24-4.76-.24-7.51h2.75q0,4,.25,7l7-1.24.42,2.62-7.22,1.29a35.09,35.09,0,0,0,.63,4.38c.11.55.25,1.07.36,1.54a32.14,32.14,0,0,0,3.28-5.37l2.23,1.49a37.88,37.88,0,0,1-4.54,6.94,9.43,9.43,0,0,0,.63,1.38c.72,1.18,1.24,1.79,1.57,1.79s.8-1.24,1.21-3.69l2.32,1.29c-.69,3.75-1.71,5.62-3.09,5.62-1.1,0-2.26-.83-3.44-2.45a10.26,10.26,0,0,1-1.13-1.9,19.2,19.2,0,0,1-5.9,3.88l-1.51-2.07h-6.75V39.4H302v-13h3.58V15Zm1.46,19.89V29.07h-5.1v5.84Zm14.68-15.78-2.12,1.46a31.29,31.29,0,0,0-2.95-3.8l2-1.27A35.75,35.75,0,0,1,324.54,19.13Z"/><path class="cls-9" d="M344.64,22.27v3.11h7.52v9.36c0,2-1,3-3,3h-2.45L346,35.07l2.26.11c.74,0,1.13-.35,1.13-1V28h-4.77V40.39h-2.78V28H337V38h-2.75V27.88a45.66,45.66,0,0,1-3.86,3.37l-1.87-2.46a30.39,30.39,0,0,0,7.58-7.85h-6.64v-2.8h8.23a27.38,27.38,0,0,0,1.38-3.39l2.92.36c-.33,1-.72,2-1.1,3h12.78v2.8H339.49a36.53,36.53,0,0,1-3,4.44h5.34V22.27Z"/><path class="cls-10" d="M357.31,40.14l-.63-2.78a13.69,13.69,0,0,0,2.07.16.82.82,0,0,0,.91-.93V31c-1,.36-1.93.69-2.9,1l-.71-2.92a36,36,0,0,0,3.61-1V22.65H356.6V19.87h3.06V14.94h2.91v4.93h2v2.78h-2v4.27c.69-.33,1.38-.69,2.07-1.05v2.92c-.72.33-1.4.66-2.07,1v7.54a2.5,2.5,0,0,1-2.83,2.81Zm8.57-8.29V29.18h14.76v2.67h-5.89v5h6.91v2.79H364.78V36.86h7.08v-5Zm8.87-14.18h6.33v5.7h-2.67V20.23H368.14v3.14h-2.7v-5.7h6.42a17.24,17.24,0,0,0-1.24-2.59l2.94-.5C374,15.52,374.36,16.54,374.75,17.67Zm-2.21,4.76a14.83,14.83,0,0,1-4.7,6.2l-2.07-1.82A12.45,12.45,0,0,0,370,21.44Zm8,4.71L378,28.44a37,37,0,0,0-4.16-6l2.37-1A31.79,31.79,0,0,1,380.53,27.14Z"/><path class="cls-11" d="M407.83,15.88v2.81h-9.95v9.47h11v2.78h-11v9.42H395V30.94H384.22V28.16H395V18.69h-9.64V15.88Zm-15.59,10-2.7,1.32a52.58,52.58,0,0,0-2.84-6.17l2.67-1.29A65.88,65.88,0,0,1,392.24,25.93Zm14.32-5a33,33,0,0,1-3,6.17l-2.59-1.33a32.91,32.91,0,0,0,3-6.08Z"/><path class="cls-12" d="M412.32,23.45c1.93-.3,4.79-3.19,8.54-8.67l3,1a51.9,51.9,0,0,1-6.55,7.55q6.69-.33,13.05-.91c-.83-1.21-1.68-2.37-2.53-3.44l2.61-1.24a78.63,78.63,0,0,1,6.25,9.11l-2.8,1.38c-.61-1.13-1.24-2.2-1.88-3.25q-8.6.78-19.14,1.16Zm21.26,17h-2.92v-1H417.5v1h-2.92V28.63h19Zm-2.92-3.8V31.38H417.5v5.26Z"/></svg>