<svg id="图层_1" data-name="图层 1" xmlns="http://www.w3.org/2000/svg" viewBox="0 0 160 90"><defs><style>.cls-1,.cls-2{fill:#eee;}.cls-1{opacity:0.4;}.cls-3{fill:#cdcdcd;}.cls-4{font-size:10px;fill:#999;font-family:PingFangSC-Light-GBpc-EUC-H, PingFang SC;}</style></defs><title>缺省场景图</title><rect class="cls-1" x="54.09" y="23.5" width="41.22" height="37.64" rx="5.38" ry="5.38"/><circle class="cls-2" cx="68" cy="35" r="4.5"/><path class="cls-2" d="M74.81,52.36l5.47-5.47a1.58,1.58,0,0,1,2.22,0L88,52.43a1.57,1.57,0,0,1-1.13,2.68c-3.21,0-7.76-.07-11-.07A1.57,1.57,0,0,1,74.81,52.36Z"/><path class="cls-2" d="M62.81,52.36l5.47-5.47a1.58,1.58,0,0,1,2.22,0L76,52.43a1.57,1.57,0,0,1-1.13,2.68c-3.21,0-7.76-.07-11-.07A1.57,1.57,0,0,1,62.81,52.36Z"/><path class="cls-3" d="M93.69,18.5H65.13a8.42,8.42,0,0,0-8.4,8.4V52.1a8.42,8.42,0,0,0,8.4,8.4H93.69a8.42,8.42,0,0,0,8.4-8.4V26.9a8.42,8.42,0,0,0-8.4-8.4Zm5,33.6a5.06,5.06,0,0,1-5,5H65.13a5.06,5.06,0,0,1-5-5V26.9a5.06,5.06,0,0,1,5-5H93.69a5.06,5.06,0,0,1,5,5Zm0,0"/><path class="cls-3" d="M71,37.82a5,5,0,1,0-5-5,5.06,5.06,0,0,0,5,5Zm0-6.72a1.68,1.68,0,1,1-1.68,1.68A1.69,1.69,0,0,1,71,31.1ZM95.29,51l-9.5-9.49a3.33,3.33,0,0,0-4.78,0l-4.2,4.2-1.94-1.94a3.34,3.34,0,0,0-4.78,0L63,50.84a2.09,2.09,0,0,0-.42,1.26,1.69,1.69,0,0,0,1.68,1.68,1.56,1.56,0,0,0,1.18-.5l7-7.06,7.06,7.06a1.71,1.71,0,0,0,1.26.5,1.69,1.69,0,0,0,1.68-1.68A2.1,2.1,0,0,0,82,50.84l-2.77-2.77,4.2-4.2,9.49,9.49a1.81,1.81,0,0,0,1.1.42,1.69,1.69,0,0,0,1.68-1.68A1.6,1.6,0,0,0,95.29,51Zm0,0"/><text class="cls-4" transform="translate(50.33 77.33)">暂无场景图片</text></svg>