<svg id="图层_1" data-name="图层 1" xmlns="http://www.w3.org/2000/svg" viewBox="0 0 512 512"><defs><style>.cls-1{fill:#6799fd;opacity:0.3;}.cls-2,.cls-3,.cls-4{fill:none;stroke-miterlimit:10;}.cls-2,.cls-4{stroke:#6799fd;}.cls-2{stroke-linecap:round;stroke-width:16px;}.cls-3{stroke:#333;}.cls-3,.cls-4{stroke-width:32px;}</style></defs><title>并集</title><path class="cls-1" d="M343.82,87.54l-1.24,111.29H186.32c-7.51,0-13.59,7.16-13.59,16v124L61,341c3.81,0,1.27-255,1.27-255S343.82,91.88,343.82,87.54Z"/><path class="cls-1" d="M459.31,419.69V193.83H197.59c-12.57,0-22.76,13-22.76,29.14V448.83H436.55C449.12,448.83,459.31,435.78,459.31,419.69Z"/><line class="cls-2" x1="456.35" y1="261.75" x2="267.85" y2="450.25"/><line class="cls-2" x1="416.31" y1="202.28" x2="179.42" y2="439.18"/><line class="cls-2" x1="339.93" y1="96.17" x2="97.63" y2="338.47"/><line class="cls-2" x1="340.3" y1="185.8" x2="181.55" y2="344.55"/><line class="cls-2" x1="259.16" y1="85.45" x2="60.03" y2="284.58"/><line class="cls-2" x1="179.41" y1="79.7" x2="55.25" y2="203.86"/><line class="cls-2" x1="457.77" y1="350.33" x2="357.41" y2="450.69"/><rect class="cls-3" x="173.11" y="198.83" width="283.65" height="254" rx="16" ry="16"/><rect class="cls-4" x="59.31" y="84.83" width="283.65" height="254" rx="16" ry="16"/></svg>