<svg id="图层_1" data-name="图层 1" xmlns="http://www.w3.org/2000/svg" viewBox="0 0 512 512"><defs><style>.cls-1{fill:#6799fd;}.cls-2{fill:none;stroke:#fff;stroke-linecap:round;stroke-miterlimit:10;stroke-width:16px;}.cls-3{fill:#333;}</style></defs><title>添加源</title><circle class="cls-1" cx="368.13" cy="371.83" r="100"/><line class="cls-2" x1="315.74" y1="373.05" x2="425.13" y2="373.05"/><line class="cls-2" x1="370.73" y1="318.52" x2="370.73" y2="427.91"/><path class="cls-3" d="M275.5,464.46a132.06,132.06,0,0,1-20.22-26h-1c-40.25,0-77.85-6.06-105.88-17.07-26.66-10.47-36.12-22.16-36.12-29V352.1a149.35,149.35,0,0,0,24.42,12.06c27.64,10.85,63,17.45,100.88,18.95-.32-3.73-.49-7.49-.49-11.28a132.78,132.78,0,0,1,1.63-20.7c-34.31-1.35-65.94-7.18-90.32-16.76-26.66-10.47-36.12-22.16-36.12-29V265.09a149.35,149.35,0,0,0,24.42,12.06c31.66,12.43,73.42,19.28,117.58,19.28q3.35,0,6.69-.05a132.66,132.66,0,0,1,35.49-34.27,378.31,378.31,0,0,1-42.18,2.32c-40.25,0-77.85-6.06-105.88-17.07-26.66-10.47-36.12-22.16-36.12-29v-40.3a149.35,149.35,0,0,0,24.42,12.06c31.66,12.44,73.42,19.28,117.58,19.28s85.91-6.84,117.57-19.28a149.88,149.88,0,0,0,24.43-12.06v40.3c0,5.45-6.06,14-22.12,22.59a130.16,130.16,0,0,1,54.12,14.44v-124c0-23.61-20-44.48-56.43-58.78-31.66-12.43-73.42-19.28-117.57-19.28S168.4,60.16,136.74,72.59c-36.38,14.3-56.42,35.17-56.42,58.78v261c0,23.61,20,44.49,56.42,58.78,31.66,12.43,73.42,19.28,117.58,19.28,9,0,17.9-.29,26.63-.85Q278.18,467.11,275.5,464.46ZM148.44,102.38c28-11,65.63-17.07,105.88-17.07s77.85,6.06,105.87,17.07c26.66,10.47,36.13,22.16,36.13,29s-9.47,18.51-36.13,29c-28,11-65.62,17.06-105.87,17.06s-77.85-6.06-105.88-17.06c-26.66-10.48-36.12-22.16-36.12-29S121.78,112.85,148.44,102.38Z"/></svg>